<?xml version="1.0" encoding="UTF-8"?>
<svg width="960px" height="960px" viewBox="0 0 960 960" version="1.1" xmlns="http://www.w3.org/2000/svg" xmlns:xlink="http://www.w3.org/1999/xlink">
    <title>FireAngel-ZST-630</title>
    <g id="FireAngel-ZST-630" stroke="none" fill="none" fill-rule="nonzero">
        <path d="M479.5,158 C666.26925,158 829.077361,235.365229 873.278289,350.276703 C920.478308,394.641898 945.5,449.603839 945.5,508.0611 C945.5,526.754871 942.081514,545.557412 935.45126,564.125616 C915.905923,703.61709 717.030736,802 481.5,802 C255.351772,802 62.2143181,711.163538 30.485342,579.511021 C19.6647562,556.023816 14,531.982373 14,508.0611 C14,450.71323 38.5832446,396.64671 84.8114003,352.683545 C127.614426,236.503834 291.342314,158 479.5,158 Z M481,321 C251.249544,321 65,419.721213 65,541.5 C65,548.868747 65.6819292,556.153072 67.014162,563.336212 C67.2939427,563.93772 67.5763288,564.539388 67.8629439,565.140792 C89.8850888,674.652181 263.15888,760.204657 474.815099,761.972106 L481.235,761.999 L487.879321,761.970459 C714.456822,760.02327 897,662.060999 897,541.5 C897,419.721213 710.750456,321 481,321 Z M480.5,506 C601.174218,506 699,555.696393 699,617 C699,678.303607 601.174218,728 480.5,728 C452.443736,728 425.622529,725.313693 400.978651,720.419763 L398.341404,714.629551 C395.252139,707.846912 389.496619,702.642922 382.438102,700.250204 L369.960605,696.020544 C366.080658,694.705308 361.890394,694.613318 357.956465,695.757015 L338.56514,701.394583 C291.703236,681.035904 262,650.780125 262,617 C262,605.418179 265.491684,594.250653 271.969458,583.754269 C275.920176,577.352647 289.439975,572.433137 312.528845,568.995688 C314.587347,568.689077 316.240655,567.139412 316.679704,565.105038 C320.282161,548.391208 326.45825,538.054165 335.208269,534.093975 C373.819888,516.618658 424.718925,506 480.5,506 Z M370.75,709.25 L371.750586,709.641534 C373.29352,710.24529 374.054873,711.985526 373.451116,713.52846 C373.265236,714.003488 372.9613,714.423274 372.568032,714.748147 L370.75,716.25 C367.033187,719.32041 362.362791,721 357.541783,721 L333.5,721 C329.563917,721 326.013878,718.633308 324.5,715 L323.646544,712.951705 C323.009292,711.422301 323.732524,709.665879 325.261928,709.028628 C325.584263,708.894321 325.927571,708.817322 326.27639,708.801098 L358.832123,707.286878 C362.898489,707.097745 366.959133,707.766617 370.75,709.25 Z M718.876175,685.341635 C720.620492,687.482388 720.299117,690.631858 718.158365,692.376175 L704.658365,703.376175 C702.517612,705.120492 699.368142,704.799117 697.623825,702.658365 C695.879508,700.517612 696.200883,697.368142 698.341635,695.623825 L711.841635,684.623825 C713.982388,682.879508 717.131858,683.200883 718.876175,685.341635 Z M702.876175,682.341635 C704.620492,684.482388 704.299117,687.631858 702.158365,689.376175 L688.658365,700.376175 C686.517612,702.120492 683.368142,701.799117 681.623825,699.658365 C679.879508,697.517612 680.200883,694.368142 682.341635,692.623825 L695.841635,681.623825 C697.982388,679.879508 701.131858,680.200883 702.876175,682.341635 Z M686.876175,678.341635 C688.620492,680.482388 688.299117,683.631858 686.158365,685.376175 L672.658365,696.376175 C670.517612,698.120492 667.368142,697.799117 665.623825,695.658365 C663.879508,693.517612 664.200883,690.368142 666.341635,688.623825 L679.841635,677.623825 C681.982388,675.879508 685.131858,676.200883 686.876175,678.341635 Z M480.5,526 C428.910691,526 380.483803,535.555661 343.454821,552.314688 L343.378881,552.356473 C343.289564,552.412707 343.15782,552.516259 342.962966,552.702903 C342.444688,553.199345 341.840312,553.974166 341.182669,555.074877 C339.326382,558.181781 337.604995,562.943896 336.231098,569.318731 C334.033444,579.496933 325.767251,587.244486 315.473966,588.777656 L313.980046,589.004544 C304.381586,590.49164 296.970351,592.216928 291.911175,594.057838 C290.264043,594.657189 289.004901,595.219293 288.16451,595.684517 C284.016269,602.812366 282,609.908326 282,617 C282,639.08983 302.456445,662.326074 340.112347,680.116694 L349.346934,677.432489 C332.085488,664.476486 322,648.838252 322,632 C322,587.264935 393.186725,551 481,551 C568.813275,551 640,587.264935 640,632 C640,657.23474 617.348313,679.774277 581.838217,694.629581 C597.965422,690.028778 612.814519,684.327945 625.944493,677.657798 C660.629643,660.037425 679,637.973367 679,617 C679,596.026633 660.629643,573.962575 625.944493,556.342202 C588.194392,537.164805 536.23359,526 480.5,526 Z M481,571 C441.269294,571 404.307205,578.96431 377.648537,592.545141 C354.041375,604.571431 342,619.07451 342,632 C342,644.92549 354.041375,659.428569 377.648537,671.454859 C404.307205,685.03569 441.269294,693 481,693 C520.730706,693 557.692795,685.03569 584.351463,671.454859 C607.958625,659.428569 620,644.92549 620,632 C620,619.07451 607.958625,604.571431 584.351463,592.545141 C557.692795,578.96431 520.730706,571 481,571 Z M481,275 C342.634669,275 232.03501,301.848296 156.378825,349.599038 C106.929786,380.809023 74.5415429,419.878675 60.8863191,461.910269 C58.3345941,470.288139 56.4944108,478.776123 55.3618887,487.335778 L55.184,488.723 L56.5032572,485.484063 C101.834783,377.684909 275.721408,301 481,301 C679.179878,301 848.101373,372.472949 900.336756,474.414201 L901.865,477.475 L901.568916,476.074068 C891.280667,428.550918 858.008447,384.186761 803.824664,349.569503 C729.070575,301.810166 619.287878,275 481,275 Z M479.5,198 C321.02948,198 186.082073,257.025256 135.173178,339.6077 C138.604444,337.259953 142.113824,334.952038 145.704097,332.68602 C169.9189,317.402738 197.421895,304.198991 227.998617,293.233053 L228,290.083046 C228,282.724465 232.300995,276.045002 239,273 C240.011111,272.540404 241.108903,272.302612 242.219566,272.302612 C246.516581,272.302612 250,275.786031 250,280.083046 L249.998879,285.894303 C257.500596,283.571895 265.168416,281.374464 272.999576,279.304049 L273,277.39618 C273,268.743487 278.385948,261.005204 286.5,258 C287.613881,257.587452 288.792243,257.376247 289.980067,257.376247 C295.513923,257.376247 300,261.862324 300,267.39618 L300.000682,272.811419 C306.887853,271.313289 313.88821,269.906495 321.000114,268.592246 L321,267.286497 C321,257.57924 327.261519,248.980155 336.5,246 C337.676341,245.620535 338.904775,245.427303 340.140806,245.427303 C346.690458,245.427303 352,250.736845 352,257.286497 L351.998381,263.552396 C358.580115,262.622876 365.247651,261.767411 371.999847,260.986845 L372,258.130822 C372,246.284287 380.024689,235.942387 391.5,233 C392.767623,232.674968 394.071067,232.51052 395.379698,232.51052 C404.006553,232.51052 411,239.503968 411,248.130822 L411.000648,257.382225 C416.614753,256.988367 422.280935,256.64278 427.998622,256.345888 L428,244 C428,232.40202 437.40202,223 449,223 C460.59798,223 470,232.40202 470,244 L469.998284,255.056051 C473.646788,255.018716 477.31407,255 481,255 C483.342023,255 485.676312,255.007554 488.002835,255.022639 L488,244 C488,232.40202 497.40202,223 509,223 C520.59798,223 530,232.40202 530,244 L530.001671,256.147897 C535.720576,256.421536 541.387165,256.743715 547.000917,257.114023 L547,248.130822 C547,239.503968 553.993447,232.51052 562.620302,232.51052 C563.928933,232.51052 565.232377,232.674968 566.5,233 C577.975311,235.942387 586,246.284287 586,258.130822 L586.000855,260.550588 C592.754229,261.301488 599.421791,262.12723 606.002501,263.02699 L606,257.286497 C606,250.736845 611.309542,245.427303 617.859194,245.427303 C619.095225,245.427303 620.323659,245.620535 621.5,246 C630.738481,248.980155 637,257.57924 637,267.286497 L637.001142,267.925797 C644.114389,269.20761 651.114769,270.58212 658.000788,272.048143 L658,267.39618 C658,261.862324 662.486077,257.376247 668.019933,257.376247 C669.207757,257.376247 670.386119,257.587452 671.5,258 C679.614052,261.005204 685,268.743487 685,277.39618 L685.001154,278.415611 C692.83412,280.450296 700.502072,282.612514 708.002485,284.900261 L708,280.083046 C708,275.786031 711.483419,272.302612 715.780434,272.302612 C716.891097,272.302612 717.988889,272.540404 719,273 C725.699005,276.045002 730,282.724465 730,290.083046 L730.002534,292.139495 C761.575561,303.321814 789.844249,316.9043 814.592414,332.715556 C817.441341,334.535695 820.238259,336.382991 822.9828,338.256594 C771.440929,256.381299 637.103705,198 479.5,198 Z" id="Shape" fill="#000000"></path>
    </g>
</svg>