<?xml version="1.0" encoding="UTF-8"?>
<svg width="64px" height="64px" viewBox="0 0 64 64" version="1.1" xmlns="http://www.w3.org/2000/svg" xmlns:xlink="http://www.w3.org/1999/xlink">
    <title>planned-periodic-inspection</title>
    <g id="planned-periodic-inspection" stroke="none" fill="none" fill-rule="nonzero">
        <path d="M27.7735827,7.9995863 L28,7.9995863 L28.2266354,8.00125764 L28.5964356,8.00806563 C31.7028129,8.09970666 34.6312785,8.89897649 37.2261633,10.2505559 L37.6939436,10.5010494 C37.9105015,10.6211316 38.1247176,10.745203 38.3364926,10.8731879 L38.6037372,11.0377814 L38.9798359,11.2807594 C39.1810611,11.4113102 39.3793498,11.5469307 39.5751499,11.6860996 L39.6285729,11.7261552 C44.5436706,15.2445347 47.7985177,20.9342801 47.990972,27.393249 L48.0011836,27.8734861 C48.0022176,28.071739 48.0003116,28.2701864 47.9954589,28.4687821 L47.9772466,28.9647339 L47.9398553,29.5515591 C47.7653137,31.8363052 47.2062438,34.0133745 46.3276809,36.0186138 L46.103788,36.511284 L45.9098359,36.9114537 L45.6519609,37.4124874 L45.3610806,37.938223 L45.125548,38.338279 L45.0402081,38.4758606 C44.6447463,39.1177567 44.2140301,39.7356164 43.7507585,40.3267406 L54.8360506,50.0267597 C56.2526454,51.2662834 56.3961925,53.4194958 55.1566721,54.8360943 L55.0016991,55.0017432 C53.6706935,56.3327523 51.5127071,56.3327523 50.1817015,55.0017432 C50.1282201,54.9482617 50.0765339,54.8930148 50.0267285,54.8360943 L40.3267406,43.7507585 C37.4303161,46.0207236 33.8920108,47.5090779 30.0293303,47.8983157 L29.4721675,47.9488323 C28.7353125,48.0024364 27.9936992,48.0151987 27.2498596,47.986615 C26.1461047,47.9442006 25.2857183,47.0150469 25.3281326,45.9112921 C25.3705469,44.8075372 26.2997006,43.9471507 27.4034555,43.989565 C27.602814,43.9972258 27.8019159,44.0011794 28.0006918,44.0014424 C30.5685853,44.0000848 32.9957295,43.3947616 35.14671,42.3191078 L35.5634785,42.1014184 C35.9553818,41.8907037 36.3383906,41.6637476 36.711473,41.4212251 L37.1031602,41.1597394 C40.7276014,38.6478162 43.2642899,34.677067 43.8638306,30.0968868 L43.9123503,29.6724554 L43.9367631,29.4216299 L43.9615148,29.1184739 L43.9838049,28.7263864 C43.9945634,28.4856039 44,28.2434369 44,28 C44,25.8027234 43.55708,23.7088963 42.755652,21.8029305 L42.5830663,21.410077 C42.3995083,21.0050184 42.1991192,20.6077769 41.9825055,20.2193917 L41.7545888,19.8213469 C39.1710659,15.48581 34.595903,12.4750368 29.2914366,12.0513637 L28.7683926,12.0181266 L28.3438774,12.0036222 L28.1721554,12.0009071 L28,12 C27.8451705,11.9983462 27.6904384,12.0003755 27.5359225,12.0046393 C26.4317733,12.0351083 25.5119836,11.1647185 25.4815146,10.0605694 C25.4510456,8.95642017 26.3214354,8.0366304 27.4255845,8.00616142 L27.7735827,7.9995863 Z M19.3418115,41.4595798 C19.8397552,41.7805216 20.355385,42.0735624 20.8865974,42.3372201 C21.8760019,42.828293 22.2799794,44.028457 21.7889065,45.0178615 C21.2978336,46.0072659 20.0976696,46.4112435 19.1082651,45.9201706 C18.4432589,45.5901069 17.7978791,45.2233269 17.1747926,44.8217263 C16.2463615,44.2233206 15.978823,42.9855747 16.5772288,42.0571436 C17.1756345,41.1287125 18.4133804,40.8611741 19.3418115,41.4595798 Z M13.7303914,35.2419966 C13.9994319,35.7707308 14.2977202,36.2842879 14.6237082,36.7802111 C15.2304377,37.7032242 14.9740392,38.9433256 14.0510261,39.550055 C13.128013,40.1567845 11.8879117,39.900386 11.2811822,38.9773729 C10.8740816,38.3580538 10.5015037,37.7165937 10.1653755,37.0560145 C9.66444825,36.0715625 10.0564225,34.8674248 11.0408745,34.3664975 C12.0253265,33.8655703 13.2294642,34.2575446 13.7303914,35.2419966 Z M37.0599979,18.3040034 C37.9966709,18.8894241 38.2814173,20.1233248 37.6959966,21.0599979 L27.6959966,37.0599979 C27.0143278,38.1506679 25.495246,38.3236732 24.5857864,37.4142136 L18.5857864,31.4142136 C17.8047379,30.633165 17.8047379,29.366835 18.5857864,28.5857864 C19.366835,27.8047379 20.633165,27.8047379 21.4142136,28.5857864 L25.6364749,32.8080477 L34.3040034,18.9400021 C34.8894241,18.0033291 36.1233248,17.7185827 37.0599979,18.3040034 Z M10.1531647,24.9262345 C11.2557035,24.9931831 12.0952151,25.9412399 12.0282665,27.0437786 C11.9921224,27.6390158 11.9890185,28.2324136 12.0185391,28.8221741 C12.0737593,29.9253624 11.2242133,30.8644381 10.121025,30.9196583 C9.01783663,30.9748786 8.07876094,30.1253326 8.0235407,29.0221442 C7.98664774,28.2850977 7.99052417,27.5440035 8.03562058,26.8013363 C8.10256918,25.6987975 9.05062599,24.8592859 10.1531647,24.9262345 Z M14.2061212,16.2614193 C15.1206861,16.8808099 15.3599722,18.1243266 14.7405815,19.0388915 C14.4083117,19.5295065 14.1035521,20.0383696 13.8278435,20.563365 C13.3142764,21.5412825 12.1051893,21.917713 11.1272718,21.4041459 C10.1493543,20.8905789 9.77292382,19.6814918 10.2864909,18.7035743 C10.6315861,18.0464552 11.0129603,17.4096671 11.4286489,16.7958796 C12.0480396,15.8813147 13.2915563,15.6420286 14.2061212,16.2614193 Z M22.0181262,10.9009875 C22.496696,11.8964998 22.0776312,13.0914795 21.0821189,13.5700493 C20.5474765,13.8270664 20.027377,14.1136881 19.5242837,14.4284199 C18.5878605,15.01424 17.3538384,14.73002 16.7680182,13.7935968 C16.182198,12.8571735 16.466418,11.6231514 17.4028413,11.0373313 C18.0312151,10.6442248 18.6809679,10.2861524 19.3490645,9.9649803 C20.3445768,9.48641052 21.5395564,9.90547524 22.0181262,10.9009875 Z" id="Shape" fill="#000000"></path>
    </g>
</svg>