<?xml version="1.0" encoding="UTF-8"?>
<svg width="64px" height="64px" viewBox="0 0 64 64" version="1.1" xmlns="http://www.w3.org/2000/svg" xmlns:xlink="http://www.w3.org/1999/xlink">
    <title>dust-inside</title>
    <g id="dust-inside" stroke="none" fill="none" fill-rule="nonzero">
        <path d="M11.5,53 C12.3284271,53 13,53.6715729 13,54.5 C13,55.3284271 12.3284271,56 11.5,56 C10.6715729,56 10,55.3284271 10,54.5 C10,53.6715729 10.6715729,53 11.5,53 Z M30,9 C36.6253661,9 42.4561496,13.062256 44.8473467,19.0427873 C51.0812043,19.4661347 56,24.6586442 56,31 C56,37.3060438 51.1358328,42.4760004 44.9519316,42.9519316 C44.4760004,49.1358328 39.3060438,54 33,54 C28.1552355,54 23.8905142,51.1055928 22.0122011,46.8314018 C21.3523452,46.9432615 20.6797831,47 20,47 C13.372583,47 8,41.627417 8,35 C8,30.6374434 10.3499872,26.7058483 14.0200554,24.6028295 C14.2177802,15.9476984 21.2975291,9 30,9 Z M52.5,48 C53.3284271,48 54,48.6715729 54,49.5 C54,50.3284271 53.3284271,51 52.5,51 C51.6715729,51 51,50.3284271 51,49.5 C51,48.6715729 51.6715729,48 52.5,48 Z M30,13 C23.372583,13 18,18.372583 18,25 C18,25.2387553 18.0069476,25.4716554 18.0209121,25.6983937 L18.1071234,27.0981892 L16.8204699,27.656206 C13.9178457,28.915063 12,31.7812534 12,35 C12,39.418278 15.581722,43 20,43 C20.9124217,43 21.8001639,42.848021 22.6378663,42.5540566 L24.7065155,41.8281316 L25.2399921,43.9545557 C26.1247553,47.4811986 29.3109318,50 33,50 C37.418278,50 41,46.418278 41,42 C41,41.7143285 40.9851068,41.4335835 40.9555346,41.1592891 L40.6901101,38.6973707 L43.1527692,38.9558321 C43.4325534,38.9851961 43.7151845,39 44,39 C48.418278,39 52,35.418278 52,31 C52,26.581722 48.418278,23 44,23 C43.8451374,23 43.6911089,23.0043768 43.5390847,23.0130563 L41.957502,23.1033529 L41.5074814,21.5844589 C40.0108431,16.5330564 35.350227,13 30,13 Z M32.5,37 C33.3284271,37 34,37.6715729 34,38.5 C34,39.3284271 33.3284271,40 32.5,40 C31.6715729,40 31,39.3284271 31,38.5 C31,37.6715729 31.6715729,37 32.5,37 Z M25,29 C26.1045695,29 27,29.8954305 27,31 C27,32.1045695 26.1045695,33 25,33 C23.8954305,33 23,32.1045695 23,31 C23,29.8954305 23.8954305,29 25,29 Z M36,26 C37.1045695,26 38,26.8954305 38,28 C38,29.1045695 37.1045695,30 36,30 C34.8954305,30 34,29.1045695 34,28 C34,26.8954305 34.8954305,26 36,26 Z M28.5,21 C29.3284271,21 30,21.6715729 30,22.5 C30,23.3284271 29.3284271,24 28.5,24 C27.6715729,24 27,23.3284271 27,22.5 C27,21.6715729 27.6715729,21 28.5,21 Z M10,15 C11.1045695,15 12,15.8954305 12,17 C12,18.1045695 11.1045695,19 10,19 C8.8954305,19 8,18.1045695 8,17 C8,15.8954305 8.8954305,15 10,15 Z M51,8 C52.1045695,8 53,8.8954305 53,10 C53,11.1045695 52.1045695,12 51,12 C49.8954305,12 49,11.1045695 49,10 C49,8.8954305 49.8954305,8 51,8 Z" id="Shape" fill="#000000"></path>
    </g>
</svg>