<?xml version="1.0" encoding="UTF-8"?>
<svg width="64px" height="64px" viewBox="0 0 64 64" version="1.1" xmlns="http://www.w3.org/2000/svg" xmlns:xlink="http://www.w3.org/1999/xlink">
    <title>end-off-life</title>
    <g id="end-off-life" stroke="none" fill="none" fill-rule="nonzero">
        <path d="M32,8 C35.7194835,8 39.2413461,8.84611584 42.3836114,10.3563712 L43.0935655,10.7122291 C46.002262,12.2250701 48.5131852,14.2927751 50.5272084,16.7432571 C53.0999151,19.8636623 54.899424,23.645173 55.632797,27.7946625 C56.0005068,29.8577018 56.1009702,31.9897134 55.9054832,34.1419498 C55.5867572,37.7468157 54.4712725,41.1218836 52.7364083,44.0908485 L52.3900768,44.6650212 L52.3547844,44.7214957 C51.3028345,46.4066355 50.0551782,47.9353426 48.6514349,49.2851832 L48.1280249,49.7734972 L47.8737246,50.0007612 C44.8151561,52.7003502 41.0628574,54.6323935 36.9184891,55.4955483 L36.2013537,55.6335007 C33.8858543,56.0471704 31.4832475,56.1230834 29.0626182,55.8217908 C26.1511474,55.4666722 23.4012529,54.5902442 20.9084386,53.2888172 C17.3853151,51.4585755 14.444923,48.8133474 12.2640765,45.6597971 C10.6898485,43.3898498 9.4973476,40.8352993 8.77917559,38.0889252 C7.83021317,34.4862617 7.7097153,30.6176473 8.57616554,26.7582885 L6.84341871,26.2942105 C6.63726101,26.2389707 6.44899779,26.1312232 6.29723801,25.9816183 C5.81561941,25.5068385 5.81094936,24.7348447 6.28680717,24.257322 L11.6301492,18.8952851 C11.7839973,18.7408988 11.9767313,18.6304282 12.1883305,18.575349 C12.8428143,18.4049869 13.5139011,18.7950065 13.6872447,19.4464822 L15.6336962,26.7618134 C15.6883174,26.9670957 15.6881737,27.1828336 15.6332793,27.3877022 C15.4590688,28.0378648 14.7874659,28.4228115 14.1332122,28.2475047 L12.4439439,27.7941311 C12.1518096,29.1472543 12.004849,30.5010587 11.9931916,31.8384481 L11.9983364,31.9188696 L12,32 C12,33.7447276 12.2234092,35.4372752 12.643181,37.0505963 L12.8226421,37.6946646 C13.3076064,39.3216328 13.9968287,40.8772454 14.8685203,42.3237636 L15.1888217,42.8388365 L15.4727406,43.2661017 L15.5786823,43.4197578 C17.4191125,46.0612972 19.8806047,48.2378504 22.7515701,49.7378284 L22.9511444,49.8406574 C24.1634177,50.4537687 25.4567583,50.9518872 26.8210204,51.3174401 C27.5176674,51.5041061 28.2155823,51.6515898 28.9124253,51.761242 L29.4348201,51.8364088 L29.6006904,51.8575626 C30.3873412,51.9516121 31.1880198,52 32,52 C33.1153781,52 34.209431,51.908696 35.2750923,51.7331542 L35.7772006,51.6431402 C39.2575752,50.9708368 42.4932764,49.381939 45.1466488,47.0713922 L45.5891968,46.6743217 L45.9465856,46.3357007 L46.1093577,46.1748382 C46.8850361,45.4027207 47.5977042,44.5673564 48.2389751,43.6771322 L48.6328646,43.1110314 L48.7917806,42.868802 C49.8983644,41.1587889 50.7602796,39.2489747 51.3159179,37.1753045 C51.6480158,35.9358983 51.8560935,34.6924786 51.9477584,33.4582215 C51.9823403,32.9769433 52,32.490534 52,32 C52,30.9821409 51.9239637,29.982041 51.7772612,29.0050705 C51.2451853,25.5022345 49.7882576,22.2169081 47.5994067,19.4836965 L47.4201807,19.2628015 L47.237373,19.0447543 C45.7616572,17.3107775 43.9952062,15.8318665 42.0134026,14.6834038 L41.5522748,14.4242742 C41.3639974,14.3217302 41.1738895,14.2221232 40.9820128,14.125515 C39.7872775,13.5271373 38.5147922,13.0397296 37.1737822,12.6804071 L37.0746155,12.6494467 C35.4540773,12.2256327 33.7533883,12 32,12 C31.8157847,12 31.6373864,11.9750944 31.4679886,11.9284667 C31.3090849,11.9793413 31.1399013,12.0109491 30.9642322,12.020155 C29.8611763,12.0779606 28.9201121,11.2306178 28.8623065,10.127562 C28.8045009,9.02450607 29.6518437,8.0834419 30.7548996,8.0256363 C30.975584,8.01407135 31.1897844,8.03873635 31.3917249,8.09443067 C31.5830103,8.0330972 31.78764,8 32,8 Z M24.4142136,21.5857864 L32,29.171 L39.5857864,21.5857864 C40.366835,20.8047379 41.633165,20.8047379 42.4142136,21.5857864 C43.1952621,22.366835 43.1952621,23.633165 42.4142136,24.4142136 L34.829,32 L42.4142136,39.5857864 C43.1952621,40.366835 43.1952621,41.633165 42.4142136,42.4142136 C41.633165,43.1952621 40.366835,43.1952621 39.5857864,42.4142136 L32,34.829 L24.4142136,42.4142136 C23.633165,43.1952621 22.366835,43.1952621 21.5857864,42.4142136 C20.8047379,41.633165 20.8047379,40.366835 21.5857864,39.5857864 L29.171,32 L21.5857864,24.4142136 C20.8047379,23.633165 20.8047379,22.366835 21.5857864,21.5857864 C22.366835,20.8047379 23.633165,20.8047379 24.4142136,21.5857864 Z M18.5419881,13.1539121 C19.5787162,13.5350531 20.1101746,14.6844632 19.7290336,15.7211914 C19.3478926,16.7579195 18.1984825,17.2893779 17.1617544,16.9082369 C16.1250262,16.5270959 15.5935678,15.3776858 15.9747088,14.3409576 C16.3558498,13.3042295 17.5052599,12.7727711 18.5419881,13.1539121 Z M25.8181802,10.7912357 C26.2209617,11.8197496 25.7137054,12.9800438 24.6851915,13.3828253 C23.6566776,13.7856069 22.4963834,13.2783506 22.0936019,12.2498367 C21.6908204,11.2213228 22.1980767,10.0610286 23.2265906,9.65824707 C24.2551045,9.25546554 25.4153986,9.76272184 25.8181802,10.7912357 Z" id="Shape" fill="#000000"></path>
    </g>
</svg>