<?xml version="1.0" encoding="UTF-8"?>
<svg width="600px" height="600px" viewBox="0 0 600 600" version="1.1" xmlns="http://www.w3.org/2000/svg" xmlns:xlink="http://www.w3.org/1999/xlink">
    <title>assets/icon</title>
    <g id="/assets/icon" stroke="none" fill="none" fill-rule="evenodd">
        <path d="M76.0116598,447.160652 C82.859978,419.983364 89.6851319,393.260518 96.4314937,366.517944 C109.146388,316.116096 121.43354,265.602803 134.710654,215.348458 C139.386791,197.649077 148.073531,181.26322 158.814715,166.374763 C165.000868,157.800081 172.865836,150.402826 180.156659,142.644618 C206.624884,114.479594 239.820721,99.045031 277.57626,93.202885 C293.918404,90.6741609 310.572901,89.0959085 327.099005,88.9793227 C393.369685,88.5118041 459.645642,88.7860963 525.919653,88.786105 C528.255574,88.786105 530.591494,88.786105 533.811349,88.786105 C534.624943,93.236401 535.818097,97.6265815 536.178795,102.083519 C538.4883,130.61946 529.760784,155.97484 513.629953,179.240415 C511.444405,182.392673 508.82459,182.379691 505.749338,182.378846 C446.498917,182.362621 387.24622,182.095475 328.000086,182.597336 C316.217069,182.697151 304.104074,184.50886 292.762052,187.706238 C267.091774,194.942826 252.429583,212.972708 246.706436,238.604022 C244.972533,246.369379 243.013831,254.085005 241.156663,261.823067 C239.637421,268.153123 239.819335,268.410445 246.563713,268.412268 C288.525237,268.423641 330.486775,268.418307 372.448298,268.418488 C393.158932,268.41857 413.869568,268.418653 434.580202,268.418734 C436.52954,268.418734 438.478877,268.418734 440.781491,268.418734 C443.827889,290.163349 443.443417,311.011912 433.557866,330.724612 C429.997133,337.825176 425.728166,344.570562 421.953878,351.569695 C420.196892,354.827907 417.737838,355.630045 414.134863,355.623807 C351.462903,355.514956 288.790664,355.545452 226.118506,355.545944 C224.677765,355.545944 222.948463,355.045183 221.858756,355.662017 C219.836211,356.80689 217.036196,358.310027 216.552843,360.175595 C207.329196,395.775221 198.380176,431.445488 189.4148,467.111226 C187.130274,476.199439 185.001082,485.326255 182.767966,494.427402 C181.904956,497.944644 180.087689,500.007629 176.092838,500.911296 C164.906299,503.441822 153.938082,506.93323 142.745236,509.430405 C126.641446,513.023245 110.491691,511.992771 94.3755843,508.901938 C83.9292143,506.898468 73.6520761,504.55121 63.545517,498.671183 C67.6583634,481.743951 71.8056422,464.675042 76.0116598,447.160652 Z" id="Path" fill="#000000"></path>
    </g>
</svg>