<svg width="960px" height="960px" id="eyWxFn6Qjl71" xmlns="http://www.w3.org/2000/svg" viewBox="0 0 960 960">
  <style>
    #eyWxFn6Qjl74 {
      animation: zwaveMove 7.7s linear infinite;
    }

    #eyWxFn6Qjl78 {
      animation: zwaveBlink 7.7s linear infinite;
    }

    @keyframes zwaveMove {
      0% { transform: translate(372px, 645.912476px); }
      6.4935% { transform: translate(372px, 515.912476px); }
      9.0909% { transform: translate(372px, 515.912476px); }
      14.2857% { transform: translate(372px, 585.912476px); }
      16.8831% { transform: translate(372px, 585.912476px); }
      22.0779% { transform: translate(372px, 515.912476px); }
      24.6753% { transform: translate(372px, 515.912476px); }
      29.8701% { transform: translate(372px, 585.912476px); }
      32.4675% { transform: translate(372px, 585.912476px); }
      37.6623% { transform: translate(372px, 515.912476px); }
      40.2597% { transform: translate(372px, 515.912476px); }
      48.0519% { transform: translate(372px, 645.912476px); }
      100% { transform: translate(372px, 645.912476px); }
    }

    @keyframes zwaveBlink {
      0%, 48.0519% { fill: #000; }
      50.6494% { fill: #f00; }
      53.2468% { fill: #000; }
      55.8442% { fill: #f00; }
      58.4416% { fill: #000; }
      61.0390% { fill: #f00; }
      63.6364% { fill: #000; }
      66.2338% { fill: #f00; }
      68.8312% { fill: #000; }
      71.4286% { fill: #f00; }
      74.0260% { fill: #000; }
      76.6234% { fill: #f00; }
      79.2208% { fill: #000; }
      81.8182% { fill: #f00; }
      84.4156% { fill: #000; }
      87.0130% { fill: #f00; }
      89.6104% { fill: #000; }
      92.2078% { fill: #f00; }
      94.8052% { fill: #000; }
      97.4026% { fill: #f00; }
      100% { fill: #000; }
    }
  </style>
  <g transform="matrix(0.8 0 0 0.8 96 190.400098)">
    <path d="M480,-205c251.289561,0,455,203.688037,455,454.949963s-203.710439,454.949963-455,454.949963-455-203.688037-455-454.949963s203.710439-454.949963,455-454.949963Zm0,39.995601c-229.198171,0-415,185.781396-415,414.954362s185.801829,414.954362,415,414.954362s415-185.781396,415-414.954362-185.801829-414.954362-415-414.954362ZM617,389.934567c12.702549,0,23,10.296318,23,22.997471l.001017,23.774213C670.596816,441.506962,694,467.981963,694,499.92247s-23.403184,58.415508-53.998983,63.21622L640,586.912903c0,12.701152-10.297451,22.99747-23,22.99747h-274c-12.702549,0-23-10.296318-23-22.99747l-.000018-23.774057C289.403693,558.338554,266,531.863324,266,499.92247s23.403693-58.416084,53.999982-63.216376L320,412.932038c0-12.701153,10.297451-22.997471,23-22.997471h274Zm0,19.997801h-274l-.306733.015487C341.180499,410.101468,340,411.378908,340,412.932038v173.980865c0,1.656672,1.343146,2.99967,3,2.99967h274c1.656854,0,3-1.342998,3-2.99967v-173.980865c0-1.656672-1.343146-2.99967-3-2.99967ZM449,494.92302c17.673112,0,32,14.325312,32,31.996481s-14.326888,31.996481-32,31.996481h-38c-17.673112,0-32-14.325313-32-31.996481s14.326888-31.996481,32-31.996481h38Zm0,9.9989h-38c-12.150264,0-22,9.848653-22,21.997581s9.849736,21.997581,22,21.997581h38c12.150264,0,22-9.848653,22-21.997581s-9.849736-21.997581-22-21.997581ZM320.000413,457.068424C300.517379,461.595647,286,479.063887,286,499.92247s14.517379,38.326823,34.000413,42.854046v-85.708092Zm320.000176.000233v85.707626C659.483119,538.248693,674,520.780695,674,499.92247s-14.516881-38.326223-33.999411-42.853813ZM412,511.92115c8.284271,0,15,6.714991,15,14.998351s-6.715729,14.99835-15,14.99835-15-6.71499-15-14.99835s6.715729-14.998351,15-14.998351Zm334.559448-79.993891l27.574567,23.137809c6.979964,5.856886,7.889877,16.263831,2.032348,23.244563l-20.569204,24.513422c-5.85753,6.980732-16.264375,7.89179-23.244339,2.034904l-27.574567-23.137809c-6.979964-5.856886-7.889877-16.263831-2.032348-23.244563l20.569204-24.513422c5.857529-6.980732,16.264374-7.891789,23.244339-2.034904Zm-512.669626-3.0079l20.138253,24.868671c5.734807,7.081897,4.643406,17.471377-2.437712,23.205553l-27.974178,22.653043c-7.081118,5.734176-17.470478,4.641633-23.205284-2.440264l-20.138253-24.868671c-5.734807-7.081897-4.643406-17.471376,2.437712-23.205553l27.974178-22.653042c7.081118-5.734177,17.470477-4.641633,23.205284,2.440263Zm516.046102,25.42221l-22.497566,26.811555l14.556276,12.214166c.634543.532445,1.580619.449621,2.113122-.184991l20.569204-24.513422.09265-.122463c.427357-.628794.317474-1.491513-.277409-1.990679l-14.556277-12.214166Zm-543.018532-5.510505l-14.767226,11.958264c-.643738.521288-.742957,1.465787-.221611,2.109595l20.138253,24.868671.102534.114315c.535698.539485,1.403533.596236,2.007037.107527l14.767226-11.958264-22.026213-27.200108Zm264.550742-564.967971l3.067417,34.554542c1.920186,1.657733,3.214314,4.042299,3.432602,6.770594l3.220089,40.246687c.443261.315766,1.179743.546279,2.050645.546279h27.522226c.870903,0,1.607384-.230513,2.050645-.546279l3.220089-40.246687c.23659-2.957041,1.736983-5.5103,3.928518-7.172005l3.592446-31.227275c.482182-4.191521,4.326359-7.160446,8.504163-6.567912c62.358586,8.844254,122.171771,33.117573,171.17729,69.298782c1.870363,1.380906,2.994469,3.551062,3.043302,5.875283l2.084654,99.220057c37.436266,43.168641,61.875883,96.168776,70.07382,153.272444.648812,4.519374-2.857802,8.564794-7.424003,8.564734L751.116,216.452l.047479.520591c.790037,9.128271,1.207846,18.317644,1.24927,27.552881.058277,2.303982.087251,4.612362.087251,6.924326c0,18.24206-1.805612,36.227013-5.333217,53.754459l-.070598.388844c-4.450092,24.578403-11.659808,48.471352-21.507569,71.317195l29.303188,15.369379c20.075624-45.659217,30.524364-95.198944,30.524364-146.22963c0-10.596953-.450251-21.138326-1.345498-31.605602-.352942-4.126617,2.706594-7.757987,6.833666-8.11089s7.75884,2.706297,8.111782,6.832914c.931587,10.892167,1.40005,21.859919,1.40005,32.883578c0,55.910265-12.058521,110.129622-35.031418,159.780038-1.800754,3.8919-6.492856,5.484176-10.29076,3.492194l-42.577916-22.331909c-2.199328-1.153537-3.597608-3.253847-3.936953-5.5504l-460.430899-.000031c-2.785133,0-5.340911-1.543184-6.637585-4.007787C221.241297,338.905968,210.5,295.942627,210.5,251.449798c0-11.777488.751895-23.461987,2.275227-34.997741l-21.787268.00028c-4.566199.000058-8.07281-4.045361-7.423999-8.564734c14.228367-99.109322,77.281646-184.243361,166.635378-227.397844l.238983-11.347824c-1.125744,3.99678-3.751929,7.574935-7.632186,9.815203l-27.712813,16c-7.891828,4.556349-17.982664,1.853112-22.538512-6.037848l-17.998021-31.173486c-4.555848-7.89096-1.851501-17.981499,6.040327-22.537848l27.712813-16c7.891828-4.556349,17.982664-1.853112,22.538512,6.037848l17.99802,31.173486c.81962,1.419624,1.404258,2.910439,1.765983,4.427413l1.183134-56.354284c.065635-3.124901,2.062767-5.881407,5.011919-6.917614c32.335124-11.361193,70.094834-18.566588,106.78774-20.5372c4.034608-.216681,7.515742,2.801323,7.872897,6.825488Zm-14.289871,8.665414c-31.172231,2.210408-62.827171,8.327611-90.497481,17.586853l-1.579398,75.195444c-.060068,2.859851-1.742009,5.436452-4.33608,6.642532-84.376913,39.229982-144.885974,117.518548-160.84447,209.500536l21.48891-.000275c4.62127-.000059,8.143118,4.138393,7.403388,8.699573C226.613504,223.716094,225.5,237.511125,225.5,251.449798c0,40.522689,9.421428,79.674074,27.329174,114.991788h457.341652c10.372658-20.456989,17.898118-42.200192,22.394659-64.751088c3.213101-18.20978,4.850683-36.808414,4.850683-55.640453l-.003656-1.360302c-.30164-11.640495-1.382226-23.170044-3.225644-34.536573-.73973-4.561181,2.78212-8.699634,7.403391-8.699573l20.446448.000271c-8.895424-51.901889-32.140149-99.869119-66.745896-139.141096-1.171007-1.328905-1.833818-3.029343-1.871023-4.800095l-2.058366-97.968852c-44.366062-32.145856-97.854881-54.171951-153.814024-63.15525l-2.838488,24.680752c.949336,1.677767,1.424557,3.647425,1.259243,5.713631l-3.264603,40.803053c-.864121,10.800319-10.755568,18.392984-21.942437,18.392984h-27.522226c-11.186869,0-21.078316-7.592665-21.942437-18.392984l-3.264603-40.803053c-.185392-2.317143.434785-4.512864,1.62581-6.311651l-2.479394-27.9428ZM144.822178,87.177676l42.577916,22.331909c3.520456,1.846463,4.988443,6.118771,3.34628,9.738745C172.214256,160.100428,162.5,204.582878,162.5,250.449908c0,9.982139.459795,19.907161,1.373494,29.754537.382647,4.12397-2.650662,7.77727-6.775085,8.159875s-7.778126-2.650371-8.160773-6.774341C147.981214,271.28216,147.5,260.894799,147.5,250.449908c0-45.595824,9.175905-89.910156,26.827552-130.860251l-29.303188-15.369379C124.94874,149.879495,114.5,199.419222,114.5,250.449908c0,10.596953.450251,21.138326,1.345498,31.605602.352942,4.126617-2.706594,7.757987-6.833666,8.11089s-7.75884-2.706297-8.111782-6.832914C99.968463,272.441319,99.5,261.473567,99.5,250.449908c0-55.910265,12.058521-110.129622,35.031418-159.780038c1.800754-3.8919,6.492856-5.484176,10.29076-3.492194Zm628.297304-68.48732L791.92861,44.5789c5.35631,7.372328,3.722662,17.69045-3.648856,23.04617L759.158346,88.783012c-7.371518,5.355721-17.68946,3.720938-23.04577-3.65139L717.303448,59.243078c-5.356309-7.372327-3.722661-17.690449,3.648856-23.04617l29.121409-21.157942c7.371517-5.355721,17.689459-3.720938,23.045769,3.65139Zm-14.22899,8.483865L743.517656,38.343239L764.09014,66.658834l15.372836-11.169018c.670138-.486884.818651-1.424895.331714-2.095107L760.985562,27.506165l-.096411-.119524c-.50673-.566782-1.370405-.668874-1.998659-.21242ZM315.809104,-67.803091l-27.712813,16-.128947.083389c-.616645.444708-.808456,1.292981-.420173,1.965506l9.500434,16.455236l30.310889-17.5-9.500434-16.455236c-.414168-.71736-1.331517-.963109-2.048956-.548895Z"/>
    <g id="eyWxFn6Qjl74">
      <path d="M41.081002,-10l.759104.006478c27.50421.44589,49.711719,22.654345,50.154189,50.237306L92,40.995163v120.986694c0,21.985151-14.004089,41.035312-33.999429,48.072608L58,265.588034c0,9.664774-7.835263,17.499175-17.5,17.499175-9.454713,0-17.191197-7.507569-17.491094-16.938642l-.003792-.159072-.003854-.242705L23,265.587938l.000534-55.895786C3.747862,202.455188,-9.691297,184.005233,-9.9955,162.649207l-.0045-.66735v-120.986694c0-27.850546,22.346105-50.537776,50.240988-50.989671L40.918998,-10h.162004Z" transform="matrix(1 0 0 -1 0 273.087189)" fill="#fff"/>
      <path d="M41,0l-.67801.005492C17.991034,0.367515,0,18.580718,0,40.995491v120.986694l.004246.596118c.279944,19.638493,14.370276,35.9362,32.99636,39.619507L33,265.588362l.003854.242704c.128129,4.029352,3.435229,7.256471,7.496146,7.256471c4.142136,0,7.5-3.357495,7.5-7.499175l.00065-63.205931C67.309305,199.060918,82,182.23696,82,161.982185v-120.986694l-.005384-.671169C81.639745,18.21824,63.785656,0.363895,41.67801,0.005492L41,0Z" transform="matrix(1 0 0 -1 0 273.087585)"/>
      <path d="M41,90.107662l-.350774.00287c-11.31949.185362-20.460973,9.32584-20.646356,20.644085L20,111.105353v120.986693c0,11.596704,9.40202,20.997691,21,20.997691c11.480828,0,20.809836-9.212027,20.99713-20.646955L62,232.092046v-120.986693c0-11.479566-9.21304-20.807548-20.649226-20.994821L41,90.107662Z" transform="matrix(1 0 0 -1 0 343.197388)" fill="#fff"/>
    </g>
    <rect id="eyWxFn6Qjl78" width="24" height="33.996262" rx="6" ry="6" transform="translate(495 509.921356)" fill="#000"/>
  </g>
</svg>
