<?xml version="1.0" encoding="UTF-8"?>
<svg width="960px" height="960px" viewBox="0 0 960 960" version="1.1" xmlns="http://www.w3.org/2000/svg" xmlns:xlink="http://www.w3.org/1999/xlink">
    <title>FireAngel-ZHT-630</title>
    <g id="FireAngel-ZHT-630" stroke="none" fill="none" fill-rule="nonzero">
        <path d="M479.5,158 C666.26925,158 829.077361,235.365229 873.278289,350.276703 C920.478308,394.641898 945.5,449.603839 945.5,508.0611 C945.5,526.754871 942.081514,545.557412 935.45126,564.125616 C915.905923,703.61709 717.030736,802 481.5,802 C255.351772,802 62.2143181,711.163538 30.485342,579.511021 C19.6647562,556.023816 14,531.982373 14,508.0611 C14,450.71323 38.5832446,396.64671 84.8114003,352.683545 C127.614426,236.503834 291.342314,158 479.5,158 Z M481,321 C251.249544,321 65,419.721213 65,541.5 C65,548.868747 65.6819292,556.153072 67.014162,563.336212 C67.2939427,563.93772 67.5763288,564.539388 67.8629439,565.140792 C89.8850888,674.652181 263.15888,760.204657 474.815099,761.972106 L481.235,761.999 L487.879321,761.970459 C714.456822,760.02327 897,662.060999 897,541.5 C897,419.721213 710.750456,321 481,321 Z M480.5,506 C601.174218,506 699,555.696393 699,617 C699,678.303607 601.174218,728 480.5,728 C441.564178,728 405.006982,722.826379 373.34687,713.758538 C373.163408,714.138287 372.896969,714.476417 372.568032,714.748147 L370.75,716.25 C367.033187,719.32041 362.362791,721 357.541783,721 L333.5,721 C329.563917,721 326.013878,718.633308 324.5,715 L323.646544,712.951705 C323.009292,711.422301 323.732524,709.665879 325.261928,709.028628 C325.584263,708.894321 325.927571,708.817322 326.27639,708.801098 L353.990473,707.512919 C298.316587,687.394627 262,654.351829 262,617 C262,555.696393 359.825782,506 480.5,506 Z M481,654 C463.682368,654 447.58884,657.452115 436.025552,663.316354 C425.998838,668.401331 421,674.395039 421,679.5 C421,684.604961 425.998838,690.598669 436.025552,695.683646 C447.58884,701.547885 463.682368,705 481,705 C498.317632,705 514.41116,701.547885 525.974448,695.683646 C536.001162,690.598669 541,684.604961 541,679.5 C541,674.395039 536.001162,668.401331 525.974448,663.316354 C514.41116,657.452115 498.317632,654 481,654 Z M318.381986,656.022083 C326.063791,664.959353 337.579699,673.60517 352.747834,681.326417 C369.037412,689.618528 388.373098,696.210879 409.655087,700.767354 C405.259411,695.836428 402.378841,690.286703 401.385532,684.245749 L399.257518,683.761124 C385.54312,680.614143 374.123631,677.527196 365,674.5 L363.963834,674.153263 C353.116571,670.493419 337.922622,664.449692 318.381986,656.022083 Z M642.753708,655.865788 L638.993406,657.482315 C620.466585,665.414313 606.060074,671.086803 595.773077,674.5 L594.321481,674.975865 C585.253591,677.913397 574.032742,680.906961 560.658932,683.956557 C559.72922,690.000809 556.912877,695.557311 552.583401,700.499983 C573.37673,695.954199 592.278922,689.4575 608.252166,681.326417 C623.508534,673.560256 635.070061,664.858737 642.753708,655.865788 Z M317.696792,603.78578 C310.616994,612.291918 307,621.044136 307,629.5 C307,634.449156 308.239065,639.499833 310.68628,644.543273 L312.768142,644.17535 C322.527667,642.419635 329.604692,640.694576 334,639 L334.804368,638.684848 C339.381548,636.861422 341.946758,635.299806 342.5,634 L403.193386,668.380834 C403.381713,667.919376 403.58165,667.461482 403.792995,667.007219 L317.696792,603.78578 Z M643.217204,603.682665 L557.887114,666.34001 C558.128407,666.828728 558.356402,667.321757 558.570841,667.819009 L618.273077,634 C618.857933,635.374081 621.691266,637.040747 626.773077,639 L627.394055,639.233095 C632.178028,640.982745 639.811463,642.764784 650.294359,644.579211 C652.755034,639.523861 654,634.460928 654,629.5 C654,621.009964 650.353713,612.221173 643.217204,603.682665 Z M363.092032,572.812136 C359.523336,574.359923 356.072154,575.981358 352.747834,577.673583 C342.893371,582.689937 334.580465,588.09654 327.858442,593.719858 C331.058064,594.239952 334.104879,594.5 337,594.5 L337.705243,594.495075 C344.309155,594.404791 354.740741,593.073099 369,590.5 L419.816925,649.580208 C422.649746,647.703408 425.750917,645.974099 429.08424,644.404612 L363.092032,572.812136 Z M597.747248,572.742513 L532.057068,644.006179 C535.408484,645.538562 538.533719,647.229794 541.397255,649.067778 L591.773077,590.5 L594.823452,591.041705 C608.027686,593.347235 617.677561,594.5 623.773077,594.5 C626.725284,594.5 629.835226,594.229596 633.102904,593.688788 C626.389144,588.076779 618.088619,582.680769 608.252166,577.673583 C604.877966,575.955967 601.373068,574.311281 597.747248,572.742513 Z M444.112447,552.84037 C419.016676,555.414039 395.560057,560.618144 375.170873,568.01618 L374.509844,568.258765 C376.400056,569.058617 378.563442,569.639028 381,570 L381.639719,570.089083 C387.316393,570.831442 396.436487,570.801747 409,570 L447.568592,637.933423 C450.809111,637.124132 454.161845,636.432779 457.607664,635.86588 L444.112447,552.84037 Z M516.6654,552.81766 L503.197535,635.674886 C506.681514,636.215651 510.073722,636.88285 513.354746,637.669869 L551.773077,570 L553.913148,570.131055 C565.845379,570.830014 574.465355,570.786329 579.773077,570 C582.254841,569.632331 584.453202,569.037004 586.368159,568.21402 C565.793836,560.688262 542.066453,555.405928 516.6654,552.81766 Z M480.5,526 C424.76641,526 372.805608,537.164805 335.055507,556.342202 C300.370357,573.962575 282,596.026633 282,617 C282,623.730363 283.891726,630.573043 287.607252,637.345955 C287.204165,634.757489 287,632.140881 287,629.5 C287,575.099952 373.632901,531 480.5,531 C587.367099,531 674,575.099952 674,629.5 C674,632.140881 673.795835,634.757489 673.3951,637.345955 C677.108274,630.573043 679,623.730363 679,617 C679,596.026633 660.629643,573.962575 625.944493,556.342202 C588.194392,537.164805 536.23359,526 480.5,526 Z M480.5,551 C473.862878,551 467.287215,551.180301 460.795909,551.533907 L469,561 L474.403324,634.143415 C476.581533,634.048252 478.781736,634 481,634 C482.804369,634 484.596789,634.031925 486.375142,634.095055 L491.773077,561 L499.988072,551.522205 C493.566914,551.176324 487.063509,551 480.5,551 Z M481,275 C342.634669,275 232.03501,301.848296 156.378825,349.599038 C106.9554,380.792857 74.5751014,419.838201 60.9075542,461.844955 C58.2026452,470.708022 56.2955684,479.694115 55.1803019,488.758044 L55.8845933,486.980936 C100.229226,378.394899 274.773308,301 481,301 C679.179878,301 848.101373,372.472949 900.336756,474.414201 L901.865,477.475 L901.568916,476.074068 C891.280667,428.550918 858.008447,384.186761 803.824664,349.569503 C729.070575,301.810166 619.287878,275 481,275 Z M479.5,198 C321.02948,198 186.082073,257.025256 135.173178,339.6077 C138.604444,337.259953 142.113824,334.952038 145.704097,332.68602 C169.9189,317.402738 197.421895,304.198991 227.998617,293.233053 L228,290.083046 C228,282.724465 232.300995,276.045002 239,273 C240.011111,272.540404 241.108903,272.302612 242.219566,272.302612 C246.516581,272.302612 250,275.786031 250,280.083046 L249.998879,285.894303 C257.500596,283.571895 265.168416,281.374464 272.999576,279.304049 L273,277.39618 C273,268.743487 278.385948,261.005204 286.5,258 C287.613881,257.587452 288.792243,257.376247 289.980067,257.376247 C295.513923,257.376247 300,261.862324 300,267.39618 L300.000682,272.811419 C306.887853,271.313289 313.88821,269.906495 321.000114,268.592246 L321,267.286497 C321,257.57924 327.261519,248.980155 336.5,246 C337.676341,245.620535 338.904775,245.427303 340.140806,245.427303 C346.690458,245.427303 352,250.736845 352,257.286497 L351.998381,263.552396 C358.580115,262.622876 365.247651,261.767411 371.999847,260.986845 L372,258.130822 C372,246.284287 380.024689,235.942387 391.5,233 C392.767623,232.674968 394.071067,232.51052 395.379698,232.51052 C404.006553,232.51052 411,239.503968 411,248.130822 L411.000648,257.382225 C416.614753,256.988367 422.280935,256.64278 427.998622,256.345888 L428,244 C428,232.40202 437.40202,223 449,223 C460.59798,223 470,232.40202 470,244 L469.998284,255.056051 C473.646788,255.018716 477.31407,255 481,255 C483.342023,255 485.676312,255.007554 488.002835,255.022639 L488,244 C488,232.40202 497.40202,223 509,223 C520.59798,223 530,232.40202 530,244 L530.001671,256.147897 C535.720576,256.421536 541.387165,256.743715 547.000917,257.114023 L547,248.130822 C547,239.503968 553.993447,232.51052 562.620302,232.51052 C563.928933,232.51052 565.232377,232.674968 566.5,233 C577.975311,235.942387 586,246.284287 586,258.130822 L586.000855,260.550588 C592.754229,261.301488 599.421791,262.12723 606.002501,263.02699 L606,257.286497 C606,250.736845 611.309542,245.427303 617.859194,245.427303 C619.095225,245.427303 620.323659,245.620535 621.5,246 C630.738481,248.980155 637,257.57924 637,267.286497 L637.001142,267.925797 C644.114389,269.20761 651.114769,270.58212 658.000788,272.048143 L658,267.39618 C658,261.862324 662.486077,257.376247 668.019933,257.376247 C669.207757,257.376247 670.386119,257.587452 671.5,258 C679.614052,261.005204 685,268.743487 685,277.39618 L685.001154,278.415611 C692.83412,280.450296 700.502072,282.612514 708.002485,284.900261 L708,280.083046 C708,275.786031 711.483419,272.302612 715.780434,272.302612 C716.891097,272.302612 717.988889,272.540404 719,273 C725.699005,276.045002 730,282.724465 730,290.083046 L730.002534,292.139495 C761.575561,303.321814 789.844249,316.9043 814.592414,332.715556 C817.441341,334.535695 820.238259,336.382991 822.9828,338.256594 C771.440929,256.381299 637.103705,198 479.5,198 Z" id="Shape" fill="#000000"></path>
    </g>
</svg>